<?xml version="1.0" encoding="UTF-8" standalone="no"?>
<svg width="219px" height="181px" viewBox="0 0 219 181" version="1.1" xmlns="http://www.w3.org/2000/svg" xmlns:xlink="http://www.w3.org/1999/xlink">
    <!-- Generator: Sketch 43.1 (39012) - http://www.bohemiancoding.com/sketch -->
    <title>logo_raw copy</title>
    <desc>Created with Sketch.</desc>
    <defs>
        <linearGradient x1="4.34656359%" y1="57.9987289%" x2="85.2830063%" y2="57.9987288%" id="linearGradient-1">
            <stop stop-color="#003333" offset="0%"></stop>
            <stop stop-color="#004444" offset="100%"></stop>
        </linearGradient>
    </defs>
    <g id="Page-1" stroke="none" stroke-width="1" fill="none" fill-rule="evenodd">
        <g id="Desktop" transform="translate(-26.000000, -29.000000)" fill-rule="nonzero">
            <g id="logo_raw-copy" transform="translate(26.000000, 29.000000)">
                <path d="M59.6425306,100.204846 C59.855879,99.584577 59.9625532,98.8196491 59.9625532,97.9093567 C59.9625532,96.3982008 59.5941387,95.2557485 58.8573097,94.4802359 C58.1784097,93.7643509 57.2960516,93.4051735 56.2102355,93.4051735 L53.9121484,93.4051735 L53.9121484,102.703563 L56.2102355,102.703563 C57.9163161,102.703563 59.0607677,101.87054 59.6425306,100.204846 Z" id="Shape" fill="#013333"></path>
                <path d="M98.9745774,78.2032904 C99.4415419,77.7107446 99.6753774,77.1306979 99.6753774,76.4635029 L99.6753774,61.5456452 C99.6753774,60.8632788 99.4380097,60.2800565 98.9625677,59.7945673 C98.4878323,59.3094308 97.9194919,59.067039 97.2564871,59.067039 L94.6789984,59.067039 L94.6789984,78.942462 L97.2564871,78.942462 C97.9350339,78.942462 98.5076129,78.6961891 98.9745774,78.2032904 Z" id="Shape" fill="#013333"></path>
                <path d="M99.4934661,93.4637427 L96.177029,93.4637427 L96.177029,105.114427 L99.4934661,105.114427 C100.366287,105.114427 101.107708,104.804998 101.718435,104.184729 C102.329516,103.565166 102.634703,102.818938 102.634703,101.947103 L102.634703,96.6300078 C102.63435,94.5197524 101.587389,93.4637427 99.4934661,93.4637427 Z" id="Shape" fill="#013333"></path>
                <path d="M56.2098823,107.96209 L53.9117952,107.96209 L53.9117952,118.829499 L56.2098823,118.829499 C58.0717355,118.829499 59.3610097,117.870164 60.0787645,115.952552 C60.3306145,115.29453 60.4570694,114.539129 60.4570694,113.6867 C60.4570694,111.652302 60.0688742,110.170784 59.2935435,109.241086 C58.5952161,108.388657 57.567329,107.96209 56.2098823,107.96209 Z" id="Shape" fill="#013333"></path>
                <polygon id="Shape" fill="#013333" points="79.1052726 61.2273957 77.522821 72.4613918 80.6877242 72.4613918"></polygon>
                <path d="M217.998252,124.803558 L218.252927,123.812468 L218.388213,123.526326 L218.52809,123.215485 L218.187934,123.308632 L218.067837,123.022489 L217.671165,122.535942 L217.277318,122.308368 L216.499161,122.060331 L216.1749,121.878273 L215.825206,121.831347 L215.261458,121.73432 L214.959803,121.657756 L214.225094,121.737142 L213.947811,121.682807 L213.659579,121.59954 L213.382297,121.530033 L212.408806,121.352209 L212.005069,121.210372 L211.725668,121.030431 L211.496071,120.804269 L210.993077,120.872365 L210.445224,120.922113 L209.582294,120.741466 L208.886085,119.931023 L206.833137,117.567439 L205.545629,115.04861 L205.104097,114.386355 L204.727558,114.40823 L204.328766,114.217351 L203.905248,114.084335 L203.249308,113.708928 L202.1808,113.006097 L201.8523,112.740772 L201.381097,112.355485 L200.705023,111.792374 L200.495206,111.418731 L200.074515,111.413791 L200.074515,112.004423 L200.247595,112.413702 L200.743524,113.359277 L200.927555,114.169719 L201.06284,115.221142 L201.159271,115.779314 L201.824395,115.916563 L201.946611,116.795101 L201.869961,117.385027 L201.75481,118.235339 L201.574665,118.690133 L201.238747,118.658378 L200.560553,118.593458 L200.074161,118.505251 L199.584237,118.426571 L199.624858,117.832411 L199.586356,117.47394 L199.315785,116.800747 L199.349695,115.878105 L199.0929,114.677789 L198.921939,114.236756 L198.746032,113.786903 L198.4797,113.561446 L197.287563,113.270717 L196.9248,113.163105 L196.291466,113.113357 L195.885963,113.065725 L195.475515,112.964464 L194.524984,112.546012 L193.907545,111.892577 L193.553613,111.561626 L193.379826,111.219031 L193.24454,110.948766 L192.437419,110.467158 L191.975753,110.134442 L191.323698,109.67471 L190.458648,108.922836 L190.087408,108.670565 L189.522953,108.436994 L189.369653,108.202717 L188.571363,108.416177 L188.247808,108.445109 L187.8801,108.476864 L187.476363,108.296922 L187.018935,108.064762 L186.60001,107.842129 L185.98469,107.297717 L185.643827,106.934659 L185.035219,106.734959 L184.624771,106.520793 L184.268719,106.300277 L183.858977,106.063883 L183.589819,105.922047 L183.261319,105.753043 L182.939177,105.683536 L182.125698,105.640844 L181.811681,105.548404 L181.342597,105.719172 L181.081916,105.939688 L180.426682,106.363433 L179.741071,106.842218 L179.492753,107.067674 L179.186506,107.189047 L178.923,107.293131 L177.561668,107.745101 L177.234581,108.069702 L176.901489,108.379836 L176.651052,108.527318 L176.204574,108.515674 L175.914223,108.411591 L175.613981,108.535786 L175.49459,110.276632 L175.43101,110.699671 L175.530266,110.974522 L175.056944,111.107538 L174.847127,111.658653 L174.923777,112.007246 L174.870087,112.308912 L174.462465,112.284214 L174.527458,111.95291 L174.55501,111.280423 L174.332124,110.514789 L174.358263,110.213123 L173.067576,109.801021 L172.413402,110.431522 L171.338535,110.06917 L171.340655,109.71846 L171.687523,109.262961 L172.105035,108.716433 L172.642998,108.009368 L172.579418,107.676653 L172.235729,107.529877 L171.852126,107.405682 L171.87014,107.081788 L172.000481,106.314037 L172.142477,105.370579 L172.241734,104.755955 L173.352629,103.137187 L173.792042,102.538441 L174.028703,102.21384 L174.898698,101.030107 L175.599498,100.087355 L176.129337,99.3774678 L176.52389,98.8482281 L177.067505,98.1411637 L175.813906,97.7544659 L175.468805,97.5519435 L175.597732,96.5926082 L175.694163,96.2052047 L176.261797,94.3549825 L176.802585,91.7052554 L176.937871,91.1492008 L177.028297,90.8224834 L177.302753,90.1609337 L177.782787,89.041768 L178.031105,88.5125283 L178.215135,88.1053665 L178.444732,87.6773879 L178.588848,87.4342904 L178.761223,87.1820195 L178.931477,86.9615029 L179.555981,86.2276238 L180.237,85.5544308 L180.802868,84.8921754 L181.087215,84.5979181 L181.507906,84.2306257 L181.870669,83.9466004 L182.626219,83.363731 L183.316069,82.8934133 L184.325235,82.2290409 L185.526203,81.3963704 L186.002352,80.9302865 L186.540315,80.4709064 L186.369353,80.1491287 L186.303653,79.7391442 L186.105494,78.7646374 L186.004118,78.3073743 L184.271192,78.3705302 L183.177605,78.4061657 L182.736073,78.4019318 L182.080132,78.3433626 L181.762935,78.2985536 L181.390989,78.1743587 L181.01445,78.0642768 L180.671468,78.0102943 L179.353229,77.9541949 L178.460627,77.9425517 L178.152261,77.9249103 L177.694834,77.9203236 L176.858748,78.0215848 L176.200689,78.1274327 L175.891616,78.0487524 L175.708645,77.5784347 L175.645771,77.1889142 L175.580071,76.7905731 L175.514371,76.2930877 L175.802603,76.0432865 L175.7694,75.6424756 L175.72666,75.3111715 L175.663079,74.8613177 L175.609389,74.4492164 L175.554992,74.055462 L176.378008,74.1609571 L176.650345,74.1115614 L177.007103,73.9785458 L177.365274,74.1073275 L177.708256,73.9136257 L178.149082,74.0194737 L178.494184,74.100271 L178.695523,73.866347 L179.032853,73.4404854 L179.258565,73.0555517 L179.51324,72.6367466 L179.653118,72.373538 L179.551742,71.8107797 L179.249734,71.5786199 L178.945606,71.5426316 L178.619226,71.3626901 L178.357132,71.2275575 L177.830119,71.1418207 L177.437685,71.092425 L176.617495,71.0024542 L175.840045,70.8944893 L175.452203,70.8447407 L174.992656,70.8016959 L174.289031,70.7205458 L173.914965,70.6887914 L173.518292,70.6009376 L173.089829,70.4887388 L171.852832,70.191306 L170.883581,69.9415049 L170.536713,69.8398908 L169.808715,69.6486589 L168.5643,69.3194717 L167.383113,68.9888733 L167.065916,68.8967856 L166.75755,68.8131657 L165.724718,68.5252593 L165.11399,68.3541384 L164.15145,68.08846 L163.34221,67.8608869 L163.053977,67.8023177 L162.918692,67.504885 L163.105548,67.041271 L163.136632,66.6563372 L163.319603,66.2149513 L163.392015,65.2898402 L163.410029,64.6660429 L162.981566,63.5761618 L162.497294,62.772423 L162.372958,62.4506452 L162.314323,62.1510955 L162.289597,61.5188304 L162.208708,61.1335439 L162.141242,60.7553138 L162.12464,60.3862573 L161.867845,59.5038382 L161.859721,59.1612437 L161.837115,58.7992437 L161.910939,58.5042807 L161.892924,58.015616 L161.789429,57.5812865 L161.683108,57.2887934 L161.454218,56.581729 L161.343305,56.2892359 L160.915548,56.1922086 L160.51605,56.1946784 L160.15576,56.1992651 L160.013763,55.7515283 L159.898611,55.3507173 L159.74955,55.0984464 L159.477213,54.8867505 L159.197811,54.6708207 L158.670798,54.8147739 L158.118353,54.9858947 L157.563789,54.9474366 L157.268492,54.9361462 L156.996155,54.7830195 L156.831905,54.411846 L156.437352,53.4683879 L155.761277,52.2867719 L155.542631,52.0295614 L155.074253,51.406117 L154.889516,51.1587856 L154.445158,50.6609474 L153.642982,49.9253041 L152.998698,49.3353782 L152.698456,49.0584094 L152.022382,48.5517505 L150.990256,47.7727096 L150.390832,47.4735127 L150.072929,47.3179162 L149.82991,47.0501209 L148.400405,46.4873626 L147.269023,46.0685575 L146.826784,45.9133138 L146.403973,45.7647739 L146.040503,45.638462 L144.429087,45.0577096 L143.656935,44.8191988 L142.148308,44.5355263 L141.436205,44.5672807 L140.453884,44.6367875 L139.964666,44.6953567 L138.217965,44.8082612 L137.319005,44.8664776 L136.588534,43.0991696 L136.417573,42.6828343 L136.280168,42.4146862 L135.520026,40.629384 L135.250161,39.9900624 L134.688532,38.6687271 L134.3127,37.784191 L133.884237,37.8134756 L133.606955,37.9708363 L133.733056,37.0323177 L134.194723,34.9989786 L134.469885,34.150078 L134.774013,33.4274893 L135.055534,32.4999084 L135.376263,31.4036764 L135.77011,30.3995322 L136.128987,30.2241774 L136.423577,30.0774016 L136.469144,29.5777992 L136.477974,28.6523353 L136.531665,27.4117973 L136.541202,26.8963177 L136.824842,26.6193489 L137.257544,26.3335595 L138.071023,25.8293704 L138.630532,25.545345 L139.824789,25.0026979 L140.424213,24.7102047 L140.665819,23.5959786 L141.265244,21.6776608 L141.668981,20.1266355 L141.729735,19.8161481 L141.875971,19.2241053 L141.925776,18.8208246 L141.973461,18.4447115 L142.124642,16.875692 L142.164556,16.5133392 L141.750576,16.5472105 L141.338008,16.580729 L141.098521,15.8602573 L140.937097,15.3744152 L139.999635,15.6739649 L139.718115,15.8045107 L138.799727,16.2501306 L138.094689,15.568117 L137.382585,14.9242086 L137.096119,14.6902846 L136.672602,14.2668928 L136.424284,14.1409337 L136.095784,13.9271209 L135.816382,13.8279766 L135.482584,13.6028733 L135.178456,13.4225789 L134.842539,13.2112359 L134.157634,12.8689942 L133.876113,12.6932865 L133.440939,12.4142008 L132.728835,11.8895478 L132.140361,11.5540097 L131.824931,11.1778967 L131.375981,10.7527407 L129.893492,8.62307992 L130.196913,7.00219493 L130.292284,6.29054386 L130.39154,5.45963743 L130.501747,4.72611111 L130.582635,3.9714152 L130.684718,3.48310331 L130.884644,3.04383431 L130.801989,2.74887135 L130.128034,3.12039766 L129.781166,3.27140741 L127.479547,4.20110526 L126.821487,4.71446784 L126.823606,4.41738791 L126.673132,4.09314035 L126.492281,3.78935673 L126.934519,2.3304191 L128.167277,0.320013645 L128.000202,0 L127.190961,0.848547758 L126.659003,0.2568577 L125.110815,2.39110526 L123.548144,4.48936452 L121.464111,3.45346589 L120.971008,4.10654776 L120.050855,5.25252827 L118.858718,6.6144386 L118.588147,6.87835283 L119.582124,7.28798441 L122.389916,9.66109552 L126.005535,10.1878655 L126.192392,10.4824756 L126.212526,10.9418558 L126.151065,11.4125263 L125.922174,11.6824386 L125.639947,11.8376823 L125.36761,12.0828967 L125.006966,12.4770039 L124.637139,12.7765536 L124.288152,12.7970175 L123.896424,12.7903138 L123.441116,13.0309415 L123.172665,13.2832125 L122.739963,13.4860877 L122.433716,13.8279766 L122.248273,14.219614 L121.877032,14.4062593 L121.452808,14.6744074 L120.456711,14.559386 L119.314379,14.412963 L118.974223,14.3766218 L119.074892,13.9310019 L118.538695,13.8431481 L117.859795,13.7394172 L117.572269,13.72354 L117.299226,13.7912827 L116.992979,13.912655 L116.717816,13.9962749 L116.25615,13.9849844 L115.909282,14.1966803 L115.607274,14.2485458 L115.334231,14.1359942 L115.141016,15.4058168 L115.012089,16.2840019 L114.714673,16.3513918 L114.04531,16.5112222 L113.590002,16.6149532 L113.068994,16.7634932 L112.980687,17.4793782 L112.927703,18.3212222 L113.051332,19.082269 L113.152708,19.5931618 L113.174608,19.8793041 L113.220881,20.2370702 L112.890968,20.4780507 L111.977526,20.5613177 L111.326177,20.5249766 L110.940455,20.6467018 L110.679068,20.851694 L109.971203,21.502306 L109.058821,20.7412593 L108.551589,20.3337446 L107.587282,19.5998655 L106.868468,18.7442612 L106.683731,18.5191579 L106.847981,18.2241949 L106.843742,17.9179415 L106.520894,17.7471735 L106.151773,17.4589142 L105.259171,17.4723216 L104.840598,17.5824035 L104.513511,17.7221228 L104.249298,17.3685906 L104.062442,17.1568947 L103.447829,16.7765478 L103.111911,16.5376842 L102.848405,16.3217544 L102.455971,15.9569318 L101.973818,15.4502729 L101.606816,15.047345 L101.394174,14.8088343 L101.191423,14.5950214 L100.865042,14.8853977 L100.82654,15.1690702 L100.502279,15.1941209 L100.078055,15.0790994 L99.9385306,15.4686199 L99.7516742,15.8803684 L99.5351468,16.3171676 L99.4786306,16.6100136 L99.4157565,17.1593645 L99.0300339,17.5418285 L98.8251629,17.8322047 L98.6898774,18.0798889 L98.6609129,18.5459727 L98.6718629,18.8338791 L98.6690371,19.1447193 L98.6421919,19.4195712 L98.4888919,19.8990624 L98.3493677,20.2346004 L98.1148258,20.5454405 L97.7043774,20.7521969 L97.2607258,20.9547193 L96.976379,21.0221092 L96.5479161,20.9547193 L96.2663952,20.9571891 L95.9036323,21.2069903 L96.1742032,21.4345634 L95.5634758,21.9860312 L95.2770097,22.3847251 L95.0721387,22.1391579 L94.900471,22.3847251 L94.7312758,22.6274698 L94.2491226,23.5755146 L94.0082226,23.7646296 L94.2399387,24.1068713 L94.528171,24.5457875 L94.2734952,24.8227563 L93.4850952,25.5838031 L93.0290806,25.754924 L92.738729,25.9101676 L92.4056371,25.8717096 L92.0697194,26.367078 L91.7496968,26.7587154 L91.4335597,26.7156706 L91.1043532,26.9252495 L90.8337823,26.9996959 L90.5522613,26.8624464 L90.6356226,27.1933977 L90.2410694,27.3892164 L89.9863935,27.1821072 L89.6805,27.2113918 L89.486579,27.4837739 L89.1983468,27.5963255 L88.8913935,27.6231404 L88.5960968,27.9699688 L88.3255258,28.0465322 L87.947221,28.1185088 L87.6201339,28.0620565 L87.3767613,27.9022261 L87.1630597,28.0980448 L86.8091274,28.1453236 L86.5406758,28.3658402 L86.2612742,28.1813119 L86.0267323,27.762154 L84.5661435,27.9018733 L83.6738952,27.8457739 L83.376479,27.9558558 L83.0769435,28.0504133 L82.5605274,28.1068655 L82.0896774,28.0888713 L81.8123952,28.1583782 L81.525929,28.2621092 L81.2620694,28.4215867 L80.0180081,27.5998538 L79.6167435,27.5056491 L78.8975758,27.0370955 L78.2282129,26.8031715 L77.8407242,26.7308421 L77.4800806,26.5911228 L77.1215565,26.4334094 L76.7976484,26.3797797 L75.6726242,26.2806355 L74.9513371,25.9923762 L74.6270758,25.909462 L74.2328758,25.7743294 L73.7980548,25.5559298 L73.5320758,25.4567856 L73.1961581,25.4589025 L72.9100452,25.4970078 L72.2629355,25.5714542 L71.6882371,25.6773021 L71.0527839,25.7697427 L70.1400484,25.9789688 L70.3293774,25.6526043 L70.9489355,25.4387914 L71.1877161,25.2475595 L71.8146919,25.045037 L72.1615597,24.9370721 L72.4388419,24.7613645 L72.6327629,24.475575 L72.4681597,24.1516803 L72.5561129,23.8701248 L72.4706323,23.4065107 L72.3307548,22.9855887 L72.1124613,22.6140624 L71.8708548,22.0964659 L71.4430984,21.2701462 L71.3028677,21.0023509 L71.1633435,20.5228596 L71.58015,20.410308 L71.5374097,20.115345 L71.4992613,19.8048577 L71.3237081,19.3119591 L71.6617452,19.2646803 L71.8733274,19.0459279 L71.9411468,18.685692 L72.1954694,18.3187524 L72.2745919,18.0326101 L72.2247871,17.6635536 L72.2880145,17.024232 L71.4967887,15.9932729 L71.221979,15.2502203 L69.4501984,11.8599103 L70.9602387,10.8532963 L72.5939081,9.74118713 L72.1435452,9.41905653 L71.8344726,8.96002924 L71.6454968,8.63578168 L70.6893145,8.62237427 L70.241071,8.71446199 L69.7878823,8.74833333 L69.4862274,8.69223392 L69.2022339,8.67882651 L68.5847952,8.67882651 L68.0100968,8.67635673 L67.7126806,8.68306043 L67.4064339,8.68517739 L67.0051694,8.60649708 L65.9479645,8.37892398 L65.5537645,8.32741131 L65.2605871,8.36092982 L64.8886403,8.27307602 L64.4831371,8.1224191 L63.9801435,8.04126901 L63.6311565,7.9241306 L63.5025823,9.97934503 L63.4347629,11.1006277 L63.3538742,12.2825965 L64.3994226,12.3545731 L64.3252452,13.513961 L64.2150387,14.5720877 L64.1426274,15.7272417 L63.9646016,18.5029279 L63.6424597,18.5502066 L63.2185887,18.6087758 L61.7265629,18.962308 L60.867871,18.9330234 L59.9999952,19.1782378 L59.3913871,19.2322203 L57.9081919,18.9510175 L56.9505968,18.730501 L56.9142145,19.0388713 L56.9548355,19.4555595 L57.0360774,19.7681637 L57.3808258,20.4438265 L57.6128952,20.9910604 L57.7888016,21.6370858 L57.8541484,21.9475731 L57.8205919,22.6500507 L57.7955129,23.1182515 L57.7686677,23.6901832 L57.6920177,24.4487602 L57.6828339,24.8538051 L57.6556355,25.3403528 L57.622079,25.8625361 L57.6196065,26.1687895 L57.3603387,25.9772047 L57.0717532,25.9299259 L56.6683694,25.7588051 L56.2713435,25.6709513 L55.5232113,25.7023528 L55.1223,25.779269 L54.4010129,25.8198441 L53.7945242,25.9098148 L53.0711177,25.8759435 L52.7288419,25.8018499 L52.2579919,25.9076979 L51.9400887,25.9479201 L51.604171,25.9211053 L50.8383774,25.4818363 L50.4978677,25.3855146 L50.2046903,25.441614 L49.6639016,25.6127349 L48.1450306,25.6688343 L47.22735,25.8060838 L46.5692903,25.9052281 L45.9832887,25.8621832 L45.5414032,25.7969103 L45.2213806,25.7090565 L45.0857419,25.4592554 L44.8021016,25.4006862 L44.5113968,25.3671676 L44.0942371,25.4860702 L43.5852387,25.4504347 L43.3012452,25.4299708 L43.2899419,25.8981715 L43.1952774,26.7446023 L43.1659597,27.0575595 L43.0847177,27.3952144 L42.5079,28.665037 L42.0412887,29.7792632 L41.5478323,30.2407602 L41.0229387,31.150347 L40.5266565,32.1862456 L39.6227516,33.9803684 L39.3295742,34.6062827 L39.0681871,35.164807 L38.8453016,35.5338635 L38.612879,35.8986862 L38.2119677,36.1911793 L37.6482194,36.4342768 L37.2586113,36.6480897 L37.0555065,36.8619025 L36.9880403,37.2242554 L37.0191242,37.7870136 L37.2017419,38.327191 L37.3730565,38.5681715 L37.6436274,38.8698382 L38.3129903,39.8556355 L38.7796016,40.6325595 L38.9848258,40.9723314 L39.5909613,41.6409376 L40.0416774,42.138423 L40.2871694,42.3568226 L41.0741565,42.958039 L41.5877468,43.3408558 L42.5033081,44.2931345 L42.7374968,44.7115867 L42.861479,45.2496472 L42.7512726,45.6236433 L42.4852935,46.5487544 L42.241921,47.3302651 L40.2518468,46.9605029 L38.9805871,46.8818226 L38.7753629,47.8362183 L38.3472532,47.7035556 L38.1081194,47.5391384 L37.7499484,47.3320292 L37.4207419,47.1520877 L37.02195,46.8571248 L36.6927435,46.6680097 L36.4066306,46.6006199 L36.0820161,46.535347 L35.7574016,46.3779864 L35.478,46.2654347 L35.0156274,46.1864016 L34.6977242,46.1193645 L34.2268742,45.9979922 L33.8821258,45.9030819 L33.5938935,45.750308 L33.0372097,45.2574094 L32.6917548,45.1021657 L32.2657645,44.8862359 L31.8779226,44.6360819 L31.6278387,44.3255945 L31.1478048,44.0172242 L30.8525081,43.9406608 L30.437821,43.8418694 L29.8023677,43.519386 L29.5021258,43.3842534 L29.00655,43.3599084 L28.3212919,43.2607641 L27.9832548,43.1482125 L27.6137806,42.7696296 L27.0772306,42.4884269 L26.802421,42.3557641 L26.1510726,42.2407427 L25.7385048,41.8826238 L25.0306403,41.270117 L23.9419984,41.5357953 L23.3245597,41.6864522 L22.5449903,41.9186121 L22.2539323,42.042807 L21.8643242,42.3490604 L21.5347645,42.8892378 L21.2737306,43.3390916 L20.841029,43.9762963 L19.9530194,45.0700585 L19.0063742,45.6352865 L18.0908129,46.2118051 L16.7746935,46.5247622 L16.3172661,46.7025867 L15.6207048,47.3867173 L14.5815145,47.6749766 L14.0813468,47.6972047 L13.6034323,47.5147934 L13.1774419,48.1583489 L13.4790968,48.1946901 L13.0216694,49.7146667 L13.5356129,49.6246959 L13.8535161,49.8946082 L14.0428452,50.4933548 L14.1149032,50.887462 L14.2480694,51.284039 L14.4981532,51.5991131 L15.4515097,51.3560156 L15.8976339,51.2346433 L16.1431258,51.1019805 L16.6885065,51.1760741 L16.9770919,50.9530877 L17.6376242,50.6602417 L17.9375129,50.5656842 L18.2190339,50.5409864 L18.4783016,50.2911852 L20.1105581,49.5774172 L20.1985113,49.8430955 L20.4372919,50.0004561 L20.6421629,50.1966277 L20.6693613,50.5159357 L20.8650484,51.0836335 L21.0073984,51.3313177 L21.2080306,51.8355068 L21.2822081,52.3079415 L21.4061903,52.7648519 L21.3588581,53.1116803 L21.4355081,53.661384 L21.4379806,54.1906238 L21.3860565,54.7558519 L21.2733774,55.2014717 L21.1762403,55.6739064 L21.1158387,56.2211404 L21.009871,56.5231598 L20.6739532,56.772961 L20.6199097,57.2164639 L20.3853677,57.7337076 L20.3493387,57.8737797 L20.2815194,57.8466121 L20.2098145,58.1930877 L20.1218613,58.4771131 L19.6955177,59.1386628 L19.5129,59.4286862 L19.3532419,59.7441131 L19.3306355,60.0231988 L19.3306355,60.4490604 L19.308029,60.8025926 L19.2271403,61.34277 L19.0197968,61.5294152 L18.7965581,61.7862729 L18.9452661,62.4707563 L19.1367145,62.8620409 L19.1681516,63.3619961 L19.1614403,63.6975341 L19.2787113,64.3502632 L19.2564581,64.8368109 L19.154729,65.1786998 L18.8686161,65.6585439 L18.7534645,65.9870253 L18.4740629,66.1539123 L17.9421048,66.3656082 L17.3384419,66.1602632 L17.0385532,66.1489727 L16.6598952,66.1355653 L16.2452081,66.1062807 L15.6977081,66.0297173 L15.0845081,65.6807719 L14.8725726,65.4602554 L14.4603581,64.8657427 L14.0138806,64.4222398 L13.7909952,64.2490019 L13.585771,64.8929103 L13.3989145,65.6267895 L13.2862355,66.0657057 L12.9753968,67.2342671 L12.4819403,68.97723 L12.36255,69.3307622 L12.0806758,70.4407544 L12.0132097,70.8412125 L11.8394226,72.7955185 L11.6094726,73.8875166 L11.4967935,74.3987622 L10.4240468,77.1363431 L10.1153274,78.4552086 L9.97085806,82.629499 L9.50212742,85.1917251 L12.3756194,84.9486277 L13.3314484,84.7461053 L13.6020194,84.6808324 L14.3501516,84.5929786 L15.2268581,84.3766959 L17.7873919,83.7641891 L18.0890468,83.9554211 L18.3935274,84.2052222 L18.4722968,84.4888947 L18.6754016,84.9306335 L18.995071,85.0311891 L19.3263968,85.1243353 L19.5944952,85.2704055 L22.6597887,87.3323236 L22.9706274,87.3838363 L26.2633984,89.3656628 L22.5333339,93.5011423 L21.0702726,95.1696589 L19.8986226,96.4934639 L15.4267839,102.21384 L12.4473242,105.800674 L9.65260161,106.489039 L9.62752258,107.993491 L9.02845161,109.528287 L8.31846774,110.451634 L8.33648226,111.118123 L7.7211629,111.700992 L7.43716935,112.259164 L7.31106774,112.56083 L7.42586613,113.314821 L7.49615806,113.724805 L7.49615806,114.697195 L7.23194516,115.72886 L7.82041935,116.235519 L7.93097903,117.021263 L7.73458548,118.919117 L7.47319839,119.67099 L7.23441774,120.046398 L7.06310323,120.355121 L6.58766129,120.670901 L6.96384677,120.94293 L8.81404355,123.466345 L9.18387097,123.734493 L9.50177419,123.946189 L9.94542581,124.247856 L10.0517468,124.567517 L10.421221,125.679626 L11.4671226,126.710585 L11.4759532,127.217244 L11.1153097,127.660394 L9.56959355,128.538932 L8.44033065,130.269899 L7.85432903,130.594499 L8.11147742,132.345577 L6.58306935,133.676086 L6.10515484,134.279066 L5.67704516,134.452657 L5.40223548,135.168542 L4.95823065,134.936382 L4.65622258,134.864758 L4.40825806,134.72892 L3.87877258,134.387031 L3.30160161,134.740563 L3.16878871,135.305791 L2.74950968,135.906655 L2.45668548,136.273947 L0,137.509193 L0.642164516,140.661345 L0.669362903,141.291846 L0.800056452,141.757577 L1.15186935,141.863778 L1.48531452,142.171795 L2.91658548,142.891914 L3.15995806,142.687275 L3.44819032,142.480519 L3.48245323,142.158741 L3.11509839,141.805209 L2.75410161,141.121078 L2.97522097,140.86669 L3.42381774,140.666285 L3.77739677,140.569257 L4.07057419,140.565023 L4.02112258,140.988062 L4.11119516,141.762517 L4.1157871,142.05254 L4.1157871,142.34962 L5.36867903,142.71409 L5.75404839,142.79524 L6.07654355,142.786419 L6.16025806,142.403955 L6.18710323,141.921641 L6.2415,141.530357 L6.22560484,141.221634 L6.15142742,140.911499 L6.46473871,140.837053 L6.93346935,141.009938 L7.04826774,141.516596 L7.12279839,141.886006 L7.54878871,141.82532 L7.64557258,142.327745 L7.22417419,142.395135 L7.29164032,142.844988 L6.57035323,142.962127 L6.14683548,142.818173 L5.94161129,143.266263 L6.47321613,143.374581 L6.90132581,143.642023 L6.45732097,144.185023 L7.38135968,145.175407 L7.56821613,145.398041 L8.00091774,145.887411 L9.09874355,146.59871 L9.58336935,146.911667 L9.86277097,147.23415 L10.3431581,147.941214 L10.5095274,148.185723 L10.9040806,148.656394 L11.7472306,149.381452 L11.9436242,149.606908 L12.2883726,149.811548 L12.7076516,149.867294 L13.2576242,149.617846 L14.5221726,148.713199 L14.8785774,148.382248 L15.2007194,148.643339 L15.6987677,148.897727 L16.28265,149.08155 L15.3247016,149.336643 L15.4935435,149.953384 L16.0007758,150.007014 L16.1766823,150.054645 L16.3119677,150.027125 L16.7132323,150.137207 L17.5514371,149.555043 L17.9551742,149.415324 L17.9209113,149.734984 L18.1533339,150.0677 L18.8181048,150.37854 L19.4358968,150.468864 L21.1105403,150.714078 L21.820171,150.884846 L22.2398032,151.022096 L23.2132935,151.184749 L23.5425,151.173105 L24.3990726,151.083487 L26.0779548,150.959292 L26.4919355,150.81675 L27.2333565,150.2674 L27.1206774,149.267489 L26.7444919,149.249495 L26.243971,149.378277 L23.9925097,149.736043 L22.7325532,149.927628 L22.7300806,149.391331 L22.87455,149.031448 L23.0211387,148.578772 L23.1924532,148.166671 L23.1832694,146.478396 L27.5399565,144.107754 L27.941221,143.896058 L30.0556306,142.801591 L31.7274484,141.912115 L34.8987097,140.06401 L35.3946387,139.740115 L35.7574016,139.640971 L36.3501145,139.649791 L36.8933758,139.600043 L38.0134548,139.413398 L38.4256694,139.314959 L38.9484435,139.205936 L39.5457484,139.030934 L40.2168774,138.769842 L40.6923194,138.537682 L41.0151677,138.398316 L41.4860177,138.145339 L41.9731161,137.826384 L42.4284242,137.616805 L43.1112097,137.35148 L43.4923403,137.20047 L44.1458081,136.898803 L44.5626145,136.756967 L45.1849984,136.790838 L45.8614258,136.950669 L46.2422032,137.011355 L47.0422597,137.074864 L47.3714661,137.088624 L47.8062871,136.91962 L48.2414613,136.810596 L48.8790339,136.833177 L49.7875306,136.777431 L50.9231516,136.702984 L51.5547194,136.624304 L51.7641823,137.231519 L51.921721,137.80839 L52.0725484,138.661524 L52.1672129,139.166066 L52.2258484,139.474084 L52.3833871,140.408368 L52.5840194,141.664784 L52.5638855,143.196051 L52.6338242,143.71153 L52.7804129,145.064267 L53.1029081,145.078027 L53.4769742,144.900203 L53.9121484,144.735433 L54.7076129,144.569251 L55.1897661,144.514916 L55.6270597,144.526559 L56.0421,144.59148 L56.4765677,144.754133 L56.9138613,145.014519 L57.6012387,145.38675 L58.2684823,145.625261 L58.8724984,145.672187 L59.3747855,145.699002 L59.9025048,145.67007 L60.3913694,145.550815 L61.3150548,145.177172 L61.8021532,144.789768 L62.3203355,144.377667 L62.6587258,144.114458 L62.9586145,143.85125 L63.2136435,143.630027 L63.8130677,143.08985 L64.4237952,142.533795 L65.4428516,141.606214 L66.9504194,140.219606 L67.6671145,139.618037 L67.8857613,139.443035 L68.18565,139.230634 L68.2958565,139.496665 L68.2577081,139.895712 L68.0411806,140.147277 L68.7741242,141.515891 L69.2361435,142.209901 L69.4523177,142.536618 L69.6328161,142.80406 L69.9867484,143.313189 L70.9422242,144.747076 L71.4699435,145.537407 L72.3713758,147.078906 L72.8987419,147.885115 L73.1898,148.398478 L73.5525629,147.947918 L73.7849855,147.650838 L75.2904339,146.63999 L76.8863081,145.660897 L78.1526226,144.886442 L79.6065,144.053419 L80.0236597,143.799031 L80.9254452,143.24968 L82.8681871,141.991501 L83.1857371,141.795682 L83.3796581,142.220838 L83.3302065,143.830433 L84.2701403,144.779889 L85.3315839,145.854246 L85.7190726,146.234593 L86.4654387,146.840396 L87.0016355,147.369635 L87.7006694,147.940862 L88.1019339,148.267579 L88.4127726,148.51985 L88.6702742,148.75201 L89.1633774,149.064967 L89.8239097,149.508117 L90.3509226,149.767092 L90.7684355,150.024302 L91.7327419,150.620226 L92.8076081,151.273661 L92.2777694,154.112856 L93.7521339,154.260337 L94.1647016,154.276214 L94.878571,154.283271 L95.9135226,154.193653 L96.2314258,154.175659 L97.2296419,154.096273 L97.7774952,154.051464 L97.8700403,155.051374 L97.8990048,155.334694 L98.0003806,156.352598 L98.0908065,157.388497 L98.043121,157.723329 L98.0908065,158.155542 L98.043121,158.599398 L98.0388823,159.043253 L98.0925726,159.34245 L98.1423774,159.799361 L99.2108855,159.851579 L101.412895,159.968717 L101.944147,160.028698 L102.221429,160.067156 L102.690513,160.141602 L103.281106,160.23616 L104.107655,160.299669 L104.446398,160.353298 L105.160268,160.479257 L106.142589,160.344125 L107.736344,160.634148 L108.757519,160.715298 L109.116397,159.781014 L109.904797,157.937495 L110.515877,156.509606 L110.758897,155.942614 L110.883232,155.658589 L110.917848,155.231316 L110.777971,154.42299 L110.667765,154.067341 L110.252371,152.452807 L109.736308,150.581768 L109.037627,148.065057 L108.604926,146.502741 L108.517326,146.18308 L108.368265,145.645019 L108.259824,145.20822 L108.041884,144.076 L107.981129,143.259559 L108.093455,142.583544 L108.359081,142.487222 L109.094497,142.297754 L109.842276,141.996088 L110.419094,141.780511 L111.048189,141.580105 L111.602047,141.434035 L111.908294,141.372643 L112.447669,141.219517 L114.620008,140.213255 L115.354011,139.983918 L115.863716,139.709066 L116.298184,139.486433 L116.846744,139.236279 L117.626313,138.766314 L117.968589,138.630476 L118.978461,138.05431 L119.404098,137.848965 L119.949832,137.585756 L120.472606,137.347246 L121.68735,136.948904 L122.67179,136.766846 L123.005589,136.836353 L123.659056,137.099561 L124.148274,137.297497 L124.277202,137.642209 L124.455227,138.21414 L124.649148,138.898271 L125.181106,140.55091 L125.568948,141.532827 L126.179676,143.286021 L126.679844,144.573838 L127.090292,145.843308 L127.311058,146.03701 L127.369694,146.460754 L127.542774,147.149119 L127.730337,147.71223 L127.809106,148.005076 L127.838071,148.389657 L128.070494,150.087458 L128.734911,149.803433 L129.402861,149.553984 L130.197619,149.35746 L131.424373,149.147881 L132.192992,148.957002 L133.044973,148.709671 L133.795577,148.583712 L134.174235,148.540314 L134.658508,148.407298 L135.312682,148.266168 L136.599484,148.040712 L137.020882,147.937333 L138.17699,147.646604 L139.213355,147.372458 L139.714229,147.120187 L139.948065,146.919782 L140.404079,147.081729 L141.060019,147.424324 L141.402295,147.608852 L141.636837,147.77962 L142.048698,147.964148 L142.362716,148.128212 L142.729718,148.315563 L143.187145,148.493388 L143.428752,148.648279 L143.734998,148.74954 L144.026056,148.992637 L144.152158,149.249142 L144.537174,149.2876 L144.826113,149.093899 L145.069485,148.929834 L145.417766,148.702261 L145.677034,148.532904 L146.022135,148.351552 L146.45731,148.116569 L146.795347,147.974733 L147.108658,147.731988 L147.025297,148.326148 L146.874116,148.639105 L146.867052,149.006398 L146.551621,149.130593 L146.296239,150.593411 L146.163779,151.595439 L146.010479,152.714604 L146.267274,153.826008 L149.929873,153.988661 L151.656087,154.094156 L153.842202,154.231405 L154.775777,154.274097 L155.375202,154.287152 L155.657429,154.282918 L156.181616,154.113914 L156.533429,154.033117 L157.811753,153.636187 L158.985876,153.224791 L159.506177,153.13729 L161.055073,152.72025 L161.562305,152.571357 L163.439347,151.925684 L164.250706,151.513583 L164.979058,151.245435 L165.188168,151.53193 L165.342174,151.795138 L165.478873,152.156786 L165.369019,152.648273 L165.303319,153.02862 L165.294489,153.31194 L165.50819,153.8687 L165.792537,153.957612 L165.810552,154.280096 L165.700345,154.599756 L166.097018,155.441953 L166.394434,155.561209 L166.795345,155.691402 L167.124552,155.741856 L167.287389,155.982483 L167.472126,156.232637 L167.818287,156.536421 L168.350952,157.12423 L168.418418,157.393789 L168.582668,157.761082 L168.833105,157.997476 L169.103676,158.3937 L169.453369,159.111702 L169.434648,159.390788 L169.155247,159.732676 L169.493284,160.372704 L169.589715,160.766105 L169.578765,161.092823 L169.263334,162.063096 L169.829202,161.842579 L170.406019,161.513039 L173.730581,159.626828 L176.692379,157.917737 L178.235623,160.655671 L181.326348,159.978244 L181.380039,161.911733 L181.375094,162.625501 L181.280429,163.232715 L181.139139,163.564019 L181.611755,163.748548 L182.684502,163.914729 L182.657656,164.223452 L182.698277,164.556168 L182.829324,165.051536 L182.806718,165.569133 L182.723356,166.098372 L182.446074,166.533055 L181.997477,166.778269 L181.677455,167.064411 L180.8283,167.689973 L180.521347,168.324708 L180.152226,168.832072 L180.03001,169.214536 L179.939584,169.487271 L179.949121,169.792466 L179.983031,170.324528 L179.885894,170.799433 L179.732594,175.64868 L179.375835,175.684669 L179.25044,176.39385 L179.41469,177.24275 L179.527016,177.510899 L180.03001,178.337218 L180.73081,179.032639 L181.370855,180.072419 L181.922594,180.086179 L182.1642,180.500398 L182.384966,180.771368 L182.882308,180.964365 L183.205156,180.962248 L183.75301,180.727971 L184.028173,180.602717 L184.271192,180.327865 L184.091047,178.645589 L184.240108,178.384497 L184.465819,177.984039 L184.630069,177.454799 L184.796439,177.069513 L185.100566,176.684226 L185.313208,176.41008 L185.538919,176.187446 L185.718358,175.862846 L185.682329,175.507197 L185.863181,175.110973 L185.928881,174.730626 L185.9529,174.368273 L186.000585,173.993924 L186.171547,173.674969 L186.476381,173.552891 L186.705977,173.339431 L186.850094,172.930152 L187.282795,172.679998 L187.512392,172.526871 L187.717263,172.331053 L187.870563,171.979637 L187.769894,171.644099 L187.873389,171.344903 L187.974765,171.000191 L188.353423,170.531637 L188.594323,170.347815 L188.912226,170.352049 L188.93024,169.960058 L188.882555,169.678856 L188.962031,169.230766 L189.020666,168.922043 L189.069765,168.478893 L189.171847,168.084786 L189.342808,167.75207 L189.538848,167.450404 L189.700979,167.187195 L189.906556,166.955035 L190.237882,166.833663 L190.402839,166.509062 L190.501389,166.171407 L190.65045,165.878561 L191.509495,165.484454 L191.773002,165.370138 L192.024852,165.246649 L192.268931,165.092817 L192.46709,164.899115 L192.710463,164.739285 L193.012471,164.431267 L193.271739,164.296135 L193.577279,164.307072 L193.864098,164.284491 L194.237458,164.192756 L195.103921,164.644727 L195.716415,165.205721 L195.89656,165.439292 L196.185498,165.4153 L196.570515,165.320037 L196.798345,165.144329 L197.115542,165.277345 L197.420376,165.475281 L197.219744,165.189844 L197.620655,165.08576 L197.716026,164.790797 L197.731215,164.442205 L198.018034,164.136304 L198.29461,163.843458 L198.664437,163.301164 L198.874253,162.925051 L199.106676,162.641025 L199.22324,162.355589 L199.631569,161.812589 L199.80465,161.477051 L200.063918,161.004969 L200.158582,160.644733 L200.273734,160.171945 L200.073808,159.980361 L199.160366,160.020936 L199.457782,158.672433 L199.583884,158.292086 L199.692324,157.84823 L198.837518,158.034875 L198.493123,158.138959 L198.222552,157.977012 L197.915598,157.760729 L197.636903,157.569144 L196.712511,156.912534 L196.119798,157.069542 L195.921639,156.87584 L195.835452,156.574526 L195.548985,156.585464 L195.679326,156.087979 L195.758802,155.813127 L196.062929,155.716099 L196.155474,155.401025 L196.292879,155.639536 L196.500576,155.862875 L196.831902,155.810657 L197.098234,155.630715 L197.345845,155.378444 L197.564492,155.117353 L197.785258,154.880959 L198.026158,154.572942 L198.320042,154.217292 L198.577897,153.899749 L198.83999,153.751561 L199.03815,153.469653 L199.293532,153.309823 L199.410097,152.821864 L199.441887,152.481386 L199.664773,152.302856 L199.622739,152.586881 L199.593068,152.927359 L199.924747,152.823981 L200.195318,152.560772 L200.330603,152.319439 L200.532648,151.981078 L200.67959,151.691055 L200.907421,151.502292 L201.234508,151.562979 L201.553824,151.437019 L201.851947,151.14629 L202.103797,150.739129 L202.4217,150.520729 L202.926813,150.426172 L203.110844,150.169667 L203.366226,150.029947 L203.595823,149.773442 L203.798574,149.469659 L204.017221,149.26008 L204.278608,149.129887 L204.54494,148.958413 L204.657266,148.670507 L205.020029,148.334969 L205.245034,148.107396 L205.545276,148.096458 L205.768868,148.463045 L206.158123,148.632402 L206.579521,148.458811 L207.504619,148.922425 L207.812985,148.728723 L208.053885,148.58477 L208.226966,148.355433 L208.386977,148.112335 L208.6851,148.177255 L208.977571,147.975439 L209.295474,148.00437 L209.572756,148.002253 L209.847919,148.123626 L210.390827,147.862534 L210.557197,147.567571 L210.8532,147.297306 L210.956695,147.011164 L211.200068,146.813228 L211.272479,146.53132 L211.265415,146.209542 L211.348069,145.838016 L211.436376,145.441791 L211.644073,144.764365 L211.9482,144.550904 L212.402802,144.35932 L212.642289,144.205487 L212.580827,143.728466 L212.396797,143.374934 L212.320147,143.082088 L212.05664,142.627294 L211.778652,142.441355 L211.307448,142.157329 L211.161213,141.803797 L210.965173,141.506717 L210.762421,141.202934 L210.395419,140.599248 L210.223752,140.285585 L209.820015,139.631092 L209.750429,139.293437 L209.793169,139.007294 L209.897371,138.642825 L210.036895,138.255421 L210.237527,137.868018 L210.273556,137.435805 L210.197613,137.080156 L210.377052,136.802481 L211.001555,135.850908 L212.30955,133.757236 L212.978913,133.729715 L213.43634,133.764292 L213.555731,133.282684 L213.675121,132.966904 L212.816076,132.442604 L212.985624,131.976168 L213.104308,131.127973 L213.171774,130.632604 L212.507356,130.489357 L211.659615,130.304828 L210.814345,130.104423 L210.22799,129.932949 L209.847919,129.782645 L209.176084,129.429113 L208.896682,129.264343 L208.58761,129.045943 L207.943326,128.52376 L207.663924,128.327942 L207.954276,128.35899 L208.829216,129.066055 L209.500345,129.473922 L209.990269,129.708199 L210.780789,129.993635 L212.349465,130.306593 L212.597076,130.120653 L213.284806,130.255786 L214.059431,130.315766 L214.165752,129.508146 L214.194716,128.681827 L214.343777,127.641341 L215.171032,126.925456 L216.547906,125.757248 L218.531269,125.687741 L218.563766,125.689858 L218.743205,124.931281 L217.998252,124.803558 Z M65.1984194,119.962425 C64.5195194,121.222016 63.5594516,122.228982 62.3189226,122.984031 C60.922621,123.83646 59.5358565,124.262322 58.1593355,124.262322 L47.9783081,124.262322 L47.9783081,87.8266335 L56.2102355,87.8266335 C58.3818677,87.8266335 60.3408581,88.3978596 62.0861468,89.5403119 C63.5792323,90.5091735 64.6459742,92.0108031 65.2860194,94.0444951 C65.6350065,95.1290838 65.8095,96.4179591 65.8095,97.9090039 C65.8095,100.349152 65.1595645,102.306281 63.8604,103.778273 C63.3171387,104.398542 62.6774468,104.872741 61.9406177,105.201928 C63.1624258,105.666248 64.1994968,106.587125 65.0532435,107.961737 C65.615579,108.89214 66.0320323,110.093162 66.3040161,111.565154 C66.4396548,112.320556 66.5078274,113.163105 66.5078274,114.092803 C66.5074742,116.398172 66.0708871,118.354595 65.1984194,119.962425 Z M67.8027532,83.1947271 L63.5304871,83.1947271 L63.5304871,65.2750214 L59.8233823,83.1947271 L56.3875548,83.1947271 L52.2505742,65.3205361 L52.2505742,83.1947271 L47.9779548,83.1947271 L47.9779548,54.6778772 L54.1088952,54.6778772 L58.0904565,75.1629844 L61.9127129,54.6778772 L67.8027532,54.6778772 L67.8027532,83.1947271 Z M76.1893935,54.7008109 L82.0663645,54.7008109 L86.8130129,83.1950799 L82.3210403,83.1950799 L81.3214113,76.6459142 L76.8608758,76.6459142 L75.8227452,83.1950799 L71.3742194,83.1950799 L76.1893935,54.7008109 Z M86.8981403,93.3473099 L76.7460774,93.3473099 L76.7460774,103.284316 L84.1638194,103.284316 L84.1638194,108.804639 L76.7460774,108.804639 L76.7460774,118.741645 L86.8981403,118.741645 L86.8981403,124.261969 L71.248471,124.261969 L71.248471,87.8266335 L86.8981403,87.8266335 L86.8981403,93.3473099 L86.8981403,93.3473099 Z M90.4067323,54.6778772 L97.1208484,54.6778772 C98.9890597,54.6778772 100.57575,55.345425 101.879153,56.6791092 C103.18291,58.013499 103.834965,59.6125088 103.834965,61.4775497 L103.834965,76.3728265 C103.834965,78.253039 103.179024,79.8598109 101.868203,81.193848 C100.557382,82.5282378 98.9749306,83.1950799 97.1212016,83.1950799 L90.4070855,83.1950799 L90.4070855,54.6778772 L90.4067323,54.6778772 Z M103.175492,124.262322 L99.8424532,110.548308 L99.3479371,110.548308 L96.177029,110.548308 L96.177029,124.262322 L90.6794226,124.262322 L90.6794226,87.8555653 L99.3479371,87.8555653 C102.411818,87.8555653 104.660806,88.6984678 106.096316,90.3832144 C107.356626,91.8559123 107.987487,93.9097154 107.987487,96.5432125 L107.987487,101.831376 C107.987487,104.408068 107.007992,106.587125 105.049355,108.368899 L109.121695,124.261969 L103.175492,124.261969 L103.175492,124.262322 Z M107.586576,83.1947271 L107.586576,54.6778772 L119.747787,54.6778772 L119.747787,58.9985906 L111.858135,58.9985906 L111.858135,66.7759454 L117.622781,66.7759454 L117.622781,71.0966589 L111.858135,71.0966589 L111.858135,78.8740136 L119.747787,78.8740136 L119.747787,83.1947271 L107.586576,83.1947271 L107.586576,83.1947271 Z M128.813681,124.262322 L113.832668,124.262322 L113.832668,87.8555653 L119.330274,87.8555653 L119.330274,118.799862 L128.813681,118.799862 L128.813681,124.262322 L128.813681,124.262322 Z M130.62255,83.1947271 L128.02846,83.1947271 L128.02846,63.6911832 L130.62255,63.6911832 L130.62255,83.1947271 Z M138.091863,124.262322 L132.594256,124.262322 L132.594256,87.8555653 L138.091863,87.8555653 L138.091863,124.262322 Z M141.891866,83.1947271 L139.105268,83.1947271 L135.536274,70.695848 L135.536274,83.1947271 L132.942184,83.1947271 L132.942184,63.6756589 L135.854177,63.6756589 L139.297423,76.7937485 L139.297423,63.6756589 L141.891513,63.6756589 L141.891513,83.1947271 L141.891866,83.1947271 Z M161.974166,124.262322 L156.068584,124.262322 L148.506019,100.930963 L148.506019,124.262322 L143.008413,124.262322 L143.008413,87.8266335 L149.181034,87.8266335 L156.47656,112.313852 L156.47656,87.8266335 L161.974166,87.8266335 L161.974166,124.262322 Z" id="Shape" fill="url(#linearGradient-1)"></path>
            </g>
        </g>
    </g>
</svg>